<?xml version="1.0" standalone="no"?>
<!DOCTYPE svg PUBLIC "-//W3C//DTD SVG 20010904//EN"
 "http://www.w3.org/TR/2001/REC-SVG-20010904/DTD/svg10.dtd">
<svg version="1.0" xmlns="http://www.w3.org/2000/svg"
 width="533.000000pt" height="533.000000pt" viewBox="0 0 533.000000 533.000000"
 preserveAspectRatio="xMidYMid meet">
<metadata>
Created by potrace 1.11, written by Peter Selinger 2001-2013
</metadata>
<g transform="translate(0.000000,533.000000) scale(0.100000,-0.100000)"
fill="#000000" stroke="none">
<path d="M2467 5109 c-326 -112 -413 -527 -159 -760 29 -27 80 -61 113 -76
l59 -27 0 -401 0 -400 -81 -22 c-131 -37 -244 -100 -339 -190 l-36 -33 -104
87 c-58 47 -220 182 -362 299 l-256 213 15 43 c82 239 -77 519 -328 577 -109
26 -246 2 -340 -57 -325 -206 -262 -695 103 -813 55 -17 84 -21 155 -17 82 4
118 14 229 64 10 5 739 -593 739 -605 -1 -3 -13 -44 -29 -91 -59 -180 -57
-354 5 -522 17 -46 31 -91 32 -100 1 -11 -134 -118 -416 -328 l-418 -311 -72
36 c-138 68 -276 69 -410 2 -200 -100 -298 -349 -218 -557 133 -348 600 -399
801 -88 67 103 77 166 58 381 -3 27 25 49 417 341 l420 313 45 -39 c69 -61
170 -117 270 -149 49 -16 99 -29 110 -29 20 0 20 -7 20 -423 l0 -422 -49 -18
c-57 -20 -134 -78 -178 -133 -146 -186 -127 -445 43 -608 260 -250 689 -105
755 256 34 187 -77 395 -256 479 l-65 31 0 417 0 418 57 12 c87 20 186 64 269
120 49 34 80 49 87 43 7 -5 172 -141 367 -302 195 -161 357 -295 359 -296 2
-2 -4 -30 -13 -62 -65 -233 67 -482 293 -553 195 -60 402 10 512 174 152 229
75 534 -166 653 -136 67 -264 69 -398 6 l-64 -29 -349 289 c-192 159 -358 298
-369 309 -19 19 -19 19 4 66 73 148 103 315 83 460 -7 48 -14 96 -15 105 -1
12 129 114 423 334 234 174 429 317 435 318 5 0 40 -15 77 -33 174 -85 362
-58 503 71 210 191 191 526 -37 694 -86 63 -173 87 -291 82 -116 -5 -200 -41
-286 -123 -119 -114 -167 -272 -127 -425 8 -30 14 -56 13 -57 -1 -1 -186 -139
-412 -307 l-410 -305 -19 27 c-41 59 -178 182 -244 221 -66 38 -231 101 -266
101 -14 0 -16 40 -16 403 l0 403 59 27 c155 71 261 236 261 405 0 201 -120
368 -309 432 -81 27 -204 27 -284 -1z m231 -248 c104 -53 139 -163 86 -269
-72 -144 -276 -144 -348 0 -53 106 -17 215 89 271 42 23 127 21 173 -2z
m-1733 -700 c81 -36 135 -131 120 -210 -36 -193 -287 -233 -375 -60 -83 162
90 345 255 270z m3653 -120 c78 -40 116 -107 110 -192 -13 -173 -212 -248
-334 -125 -96 95 -74 253 43 315 50 26 132 27 181 2z m-1879 -856 c357 -84
533 -491 354 -814 -94 -170 -286 -281 -483 -281 -180 0 -348 87 -451 233 -85
122 -118 253 -98 396 45 326 359 541 678 466z m-1867 -1738 c115 -63 131 -225
31 -319 -37 -35 -73 -48 -134 -48 -171 0 -260 197 -147 326 17 19 40 40 52 46
59 32 136 30 198 -5z m3477 -17 c83 -24 151 -110 151 -192 0 -216 -301 -275
-385 -76 -44 106 19 234 133 268 38 12 62 12 101 0z m-1638 -683 c91 -49 130
-171 82 -264 -43 -83 -147 -129 -230 -103 -93 30 -143 100 -143 198 0 111 81
191 196 192 35 0 65 -7 95 -23z"/>
</g>
</svg>
